{
  "accessors": [
    {
      "bufferView": 2,
      "componentType": 5126,
      "count": 1980,
      "max": [
        6.2083940505981445,
        1.4571881294250488,
        2.146294593811035
      ],
      "min": [
        -4.936424732208252,
        -0.07515573501586914,
        -2.865825653076172
      ],
      "type": "VEC3"
    },
    {
      "bufferView": 2,
      "byteOffset": 23760,
      "componentType": 5126,
      "count": 1980,
      "max": [
        0.9991832971572876,
        0.5395730137825012,
        0.9997944235801697
      ],
      "min": [
        -0.9992842674255371,
        -0.22500048577785492,
        -0.9999626874923706
      ],
      "type": "VEC3"
    },
    {
      "bufferView": 3,
      "componentType": 5126,
      "count": 1980,
      "max": [
        0.9999958872795105,
        0.21299587190151215,
        0.9999995231628418,
        1.0
      ],
      "min": [
        -0.9996406435966492,
        -0.24171121418476105,
        -0.9999987483024597,
        1.0
      ],
      "type": "VEC4"
    },
    {
      "bufferView": 1,
      "componentType": 5126,
      "count": 1980,
      "max": [
        0.9921875,
        0.9919516444206238
      ],
      "min": [
        0.0078125,
        0.007812492549419403
      ],
      "type": "VEC2"
    },
    {
      "bufferView": 1,
      "byteOffset": 15840,
      "componentType": 5126,
      "count": 1980,
      "max": [
        0.9921875,
        0.9919516444206238
      ],
      "min": [
        0.0078125,
        0.007812492549419403
      ],
      "type": "VEC2"
    },
    {
      "bufferView": 1,
      "byteOffset": 31680,
      "componentType": 5126,
      "count": 1980,
      "max": [
        0.9921875,
        0.9919516444206238
      ],
      "min": [
        0.0078125,
        0.007812492549419403
      ],
      "type": "VEC2"
    },
    {
      "bufferView": 0,
      "componentType": 5125,
      "count": 5940,
      "type": "SCALAR"
    },
    {
      "bufferView": 2,
      "byteOffset": 47520,
      "componentType": 5126,
      "count": 544,
      "max": [
        1.5768816471099854,
        1.119956374168396,
        3.124394416809082
      ],
      "min": [
        -2.45452880859375,
        -0.08966267108917236,
        -4.4789628982543945
      ],
      "type": "VEC3"
    },
    {
      "bufferView": 2,
      "byteOffset": 54048,
      "componentType": 5126,
      "count": 544,
      "max": [
        0.9623703360557556,
        0.9916208386421204,
        0.9999990463256836
      ],
      "min": [
        -0.9623701572418213,
        -0.9415827989578247,
        -0.9999990463256836
      ],
      "type": "VEC3"
    },
    {
      "bufferView": 3,
      "byteOffset": 31680,
      "componentType": 5126,
      "count": 544,
      "max": [
        0.9667714834213257,
        0.9999995827674866,
        0.6521433591842651,
        1.0
      ],
      "min": [
        -0.9983071684837341,
        -0.9999999403953552,
        -0.8435475826263428,
        1.0
      ],
      "type": "VEC4"
    },
    {
      "bufferView": 1,
      "byteOffset": 47520,
      "componentType": 5126,
      "count": 544,
      "max": [
        0.7238132953643799,
        0.8899332284927368
      ],
      "min": [
        0.0078125,
        0.0078125
      ],
      "type": "VEC2"
    },
    {
      "bufferView": 1,
      "byteOffset": 51872,
      "componentType": 5126,
      "count": 544,
      "max": [
        0.7238132953643799,
        0.8899332284927368
      ],
      "min": [
        0.0078125,
        0.0078125
      ],
      "type": "VEC2"
    },
    {
      "bufferView": 1,
      "byteOffset": 56224,
      "componentType": 5126,
      "count": 544,
      "max": [
        0.7238132953643799,
        0.8899332284927368
      ],
      "min": [
        0.0078125,
        0.0078125
      ],
      "type": "VEC2"
    },
    {
      "bufferView": 0,
      "byteOffset": 23760,
      "componentType": 5125,
      "count": 1392,
      "type": "SCALAR"
    },
    {
      "bufferView": 2,
      "byteOffset": 60576,
      "componentType": 5126,
      "count": 1972,
      "max": [
        6.459932327270508,
        3.245400905609131,
        2.2862777709960938
      ],
      "min": [
        -6.63387393951416,
        -0.023472189903259277,
        -3.3198585510253906
      ],
      "type": "VEC3"
    },
    {
      "bufferView": 2,
      "byteOffset": 84240,
      "componentType": 5126,
      "count": 1972,
      "max": [
        1.0,
        0.9999866485595703,
        0.9742149710655212
      ],
      "min": [
        -1.0,
        -0.9999865889549255,
        -0.9958175420761108
      ],
      "type": "VEC3"
    },
    {
      "bufferView": 3,
      "byteOffset": 40384,
      "componentType": 5126,
      "count": 1972,
      "max": [
        0.9825804233551025,
        0.9998680353164673,
        0.9999866485595703,
        1.0
      ],
      "min": [
        -0.9999992847442627,
        -0.9948250651359558,
        -0.9999866485595703,
        -1.0
      ],
      "type": "VEC4"
    },
    {
      "bufferView": 1,
      "byteOffset": 60576,
      "componentType": 5126,
      "count": 1972,
      "max": [
        0.9785583019256592,
        0.9143403172492981
      ],
      "min": [
        0.0078125,
        0.0078125
      ],
      "type": "VEC2"
    },
    {
      "bufferView": 1,
      "byteOffset": 76352,
      "componentType": 5126,
      "count": 1972,
      "max": [
        0.9785583019256592,
        0.9143403172492981
      ],
      "min": [
        0.0078125,
        0.0078125
      ],
      "type": "VEC2"
    },
    {
      "bufferView": 1,
      "byteOffset": 92128,
      "componentType": 5126,
      "count": 1972,
      "max": [
        0.9785583019256592,
        0.9143403172492981
      ],
      "min": [
        0.0078125,
        0.0078125
      ],
      "type": "VEC2"
    },
    {
      "bufferView": 0,
      "byteOffset": 29328,
      "componentType": 5125,
      "count": 5106,
      "type": "SCALAR"
    }
  ],
  "asset": {
    "extras": {
      "author": "HBradnam (https://sketchfab.com/HBradnam)",
      "license": "CC-BY-4.0 (http://creativecommons.org/licenses/by/4.0/)",
      "source": "https://sketchfab.com/3d-models/log-scene-6088d068edeb4ad59e244f80087d7e31",
      "title": "Log Scene"
    },
    "generator": "Sketchfab-12.68.0",
    "version": "2.0"
  },
  "bufferViews": [
    {
      "buffer": 0,
      "byteLength": 49752,
      "name": "floatBufferViews",
      "target": 34963
    },
    {
      "buffer": 0,
      "byteLength": 107904,
      "byteOffset": 49752,
      "byteStride": 8,
      "name": "floatBufferViews",
      "target": 34962
    },
    {
      "buffer": 0,
      "byteLength": 107904,
      "byteOffset": 157656,
      "byteStride": 12,
      "name": "floatBufferViews",
      "target": 34962
    },
    {
      "buffer": 0,
      "byteLength": 71936,
      "byteOffset": 265560,
      "byteStride": 16,
      "name": "floatBufferViews",
      "target": 34962
    }
  ],
  "buffers": [
    {
      "byteLength": 337496,
      "uri": "scene.bin"
    }
  ],
  "images": [
    {
      "uri": "textures/lambert1_baseColor.png"
    },
    {
      "uri": "textures/lambert1_metallicRoughness.png"
    },
    {
      "uri": "textures/lambert1_emissive.png"
    },
    {
      "uri": "textures/lambert1_normal.png"
    }
  ],
  "materials": [
    {
      "doubleSided": true,
      "emissiveFactor": [
        1.0,
        1.0,
        1.0
      ],
      "emissiveTexture": {
        "index": 2
      },
      "name": "lambert1",
      "normalTexture": {
        "index": 3
      },
      "occlusionTexture": {
        "index": 1
      },
      "pbrMetallicRoughness": {
        "baseColorTexture": {
          "index": 0
        },
        "metallicRoughnessTexture": {
          "index": 1
        }
      }
    },
    {
      "doubleSided": true,
      "emissiveFactor": [
        1.0,
        1.0,
        1.0
      ],
      "emissiveTexture": {
        "index": 2
      },
      "name": "lambert1_0",
      "normalTexture": {
        "index": 3
      },
      "occlusionTexture": {
        "index": 1
      },
      "pbrMetallicRoughness": {
        "baseColorTexture": {
          "index": 0
        },
        "metallicRoughnessTexture": {
          "index": 1
        }
      }
    },
    {
      "doubleSided": true,
      "emissiveFactor": [
        1.0,
        1.0,
        1.0
      ],
      "emissiveTexture": {
        "index": 2
      },
      "name": "lambert1_1",
      "normalTexture": {
        "index": 3
      },
      "occlusionTexture": {
        "index": 1
      },
      "pbrMetallicRoughness": {
        "baseColorTexture": {
          "index": 0
        },
        "metallicRoughnessTexture": {
          "index": 1
        }
      }
    }
  ],
  "meshes": [
    {
      "name": "pCone25_lambert1_0",
      "primitives": [
        {
          "attributes": {
            "NORMAL": 1,
            "POSITION": 0,
            "TANGENT": 2,
            "TEXCOORD_0": 3,
            "TEXCOORD_1": 4,
            "TEXCOORD_2": 5
          },
          "indices": 6,
          "material": 0,
          "mode": 4
        }
      ]
    },
    {
      "name": "pPlatonic9_lambert1_0",
      "primitives": [
        {
          "attributes": {
            "NORMAL": 8,
            "POSITION": 7,
            "TANGENT": 9,
            "TEXCOORD_0": 10,
            "TEXCOORD_1": 11,
            "TEXCOORD_2": 12
          },
          "indices": 13,
          "material": 1,
          "mode": 4
        }
      ]
    },
    {
      "name": "pCylinder9_lambert1_0",
      "primitives": [
        {
          "attributes": {
            "NORMAL": 15,
            "POSITION": 14,
            "TANGENT": 16,
            "TEXCOORD_0": 17,
            "TEXCOORD_1": 18,
            "TEXCOORD_2": 19
          },
          "indices": 20,
          "material": 2,
          "mode": 4
        }
      ]
    }
  ],
  "nodes": [
    {
      "children": [
        1
      ],
      "matrix": [
        1.0,
        0.0,
        0.0,
        0.0,
        0.0,
        2.220446049250313e-16,
        -1.0,
        0.0,
        0.0,
        1.0,
        2.220446049250313e-16,
        0.0,
        0.0,
        0.0,
        0.0,
        1.0
      ],
      "name": "Sketchfab_model"
    },
    {
      "children": [
        2
      ],
      "matrix": [
        1.0,
        0.0,
        0.0,
        0.0,
        0.0,
        0.0,
        1.0,
        0.0,
        0.0,
        -1.0,
        0.0,
        0.0,
        0.0,
        0.0,
        0.0,
        1.0
      ],
      "name": "LP-Log.Fbx"
    },
    {
      "children": [
        3,
        5,
        7
      ],
      "name": "RootNode"
    },
    {
      "children": [
        4
      ],
      "name": "pCone25"
    },
    {
      "mesh": 0,
      "name": "pCone25_lambert1_0"
    },
    {
      "children": [
        6
      ],
      "name": "pPlatonic9"
    },
    {
      "mesh": 1,
      "name": "pPlatonic9_lambert1_0"
    },
    {
      "children": [
        8
      ],
      "name": "pCylinder9"
    },
    {
      "mesh": 2,
      "name": "pCylinder9_lambert1_0"
    }
  ],
  "samplers": [
    {
      "magFilter": 9729,
      "minFilter": 9987,
      "wrapS": 10497,
      "wrapT": 10497
    }
  ],
  "scene": 0,
  "scenes": [
    {
      "name": "Sketchfab_Scene",
      "nodes": [
        0
      ]
    }
  ],
  "textures": [
    {
      "sampler": 0,
      "source": 0
    },
    {
      "sampler": 0,
      "source": 1
    },
    {
      "sampler": 0,
      "source": 2
    },
    {
      "sampler": 0,
      "source": 3
    }
  ]
}
